<svg id="Layer_1" data-name="Layer 1" xmlns="http://www.w3.org/2000/svg" viewBox="0 0 512 512"><defs><style>.cls-1{fill:#606472;}.cls-2{fill:#ffb85a;}.cls-3{fill:#757889;}.cls-4{opacity:0.2;}.cls-5{fill:#fff;}.cls-6{opacity:0.12;}</style></defs><title>bomb-flat</title><path class="cls-1" d="M381.36,128.57a12.8,12.8,0,0,1-10.74-19.74A76.57,76.57,0,0,1,435.2,73.6a12.8,12.8,0,1,1,0,25.6,51.07,51.07,0,0,0-43.07,23.51A12.78,12.78,0,0,1,381.36,128.57Z"/><path class="cls-2" d="M499.2,99.2H473.6a12.8,12.8,0,0,1,0-25.6h25.6a12.8,12.8,0,1,1,0,25.6Z"/><path class="cls-2" d="M460.8,60.8a12.8,12.8,0,0,1-9.05-21.85l19.2-19.2a12.8,12.8,0,1,1,18.1,18.1l-19.2,19.2A12.76,12.76,0,0,1,460.8,60.8Z"/><path class="cls-2" d="M480,156.8a12.76,12.76,0,0,1-9.05-3.75l-19.2-19.2a12.8,12.8,0,0,1,18.1-18.1l19.2,19.2A12.8,12.8,0,0,1,480,156.8Z"/><path class="cls-1" d="M428.25,144.55l-76.8-76.8a12.8,12.8,0,0,0-18.1,0l-45.76,45.76a12.8,12.8,0,0,0,2.92,20.28,179.49,179.49,0,0,1,71.7,71.7,12.8,12.8,0,0,0,20.28,2.92l45.76-45.76A12.8,12.8,0,0,0,428.25,144.55Z"/><path class="cls-3" d="M409.6,291.2c0,113-91.84,204.8-204.8,204.8A203.94,203.94,0,0,1,71.68,446.72a194.84,194.84,0,0,1-22.4-22.4A203.94,203.94,0,0,1,0,291.2c0-113,91.84-204.8,204.8-204.8a203.94,203.94,0,0,1,133.12,49.28,194.84,194.84,0,0,1,22.4,22.4A203.94,203.94,0,0,1,409.6,291.2Z"/><g class="cls-4"><path class="cls-5" d="M204.8,86.4C91.84,86.4,0,178.24,0,291.2A203.94,203.94,0,0,0,49.28,424.32a221.6,221.6,0,0,1-14.59-79.23c0-123.52,100.48-224,224-224a221.6,221.6,0,0,1,79.23,14.59A203.94,203.94,0,0,0,204.8,86.4Z"/></g><g class="cls-6"><path d="M360.32,158.08a221.6,221.6,0,0,1,14.59,79.23c0,123.52-100.48,224-224,224a221.6,221.6,0,0,1-79.23-14.59A203.94,203.94,0,0,0,204.8,496c113,0,204.8-91.84,204.8-204.8A203.94,203.94,0,0,0,360.32,158.08Z"/></g></svg>