<svg id="Layer_2" data-name="Layer 2" xmlns="http://www.w3.org/2000/svg" viewBox="0 0 512 512"><title>map</title><path d="M180.25,0h6.12c20.25,0,36.33,16.08,36.33,34.09h0a35.44,35.44,0,0,1-14.14,28.3V397.19c30.22,1.93,58.52,5.79,78.78,13.83,26.06,10.29,44.38,26.37,44.38,42.45,0,18-18.32,32.16-44.38,44.38-24.28,8-60.63,14.15-97,14.15-38.27,0-72.69-6.11-97-14.15C65.27,485.63,49,471.48,49,453.47c0-16.08,16.23-32.17,44.38-42.45,16.25-6.12,38.44-10,64.64-11.9V62.39a35.45,35.45,0,0,1-14.16-28.3h0c0-18,16.25-34.09,36.35-34.09Zm72.69,64.32L460.87,145H463L460.87,147,251,241.85h-2.09a18,18,0,0,1-14.14-6.11c-4-3.86-6-8-8.05-16.08h0V88.76c0-10.29" fill="#e73307" fill-rule="evenodd"/></svg>